<?xml version="1.0" encoding="utf-8"?>
<!-- Generator: Adobe Illustrator 26.2.1, SVG Export Plug-In . SVG Version: 6.00 Build 0)  -->
<svg version="1.1" id="Calque_1" xmlns="http://www.w3.org/2000/svg" xmlns:xlink="http://www.w3.org/1999/xlink" x="0px" y="0px"
	 viewBox="0 0 576 512" style="enable-background:new 0 0 576 512;" xml:space="preserve">
<style type="text/css">
	.st0{fill:#FFC432;stroke:#000000;stroke-width:7;stroke-miterlimit:10;}
</style>
<path class="st0" d="M214.2,194.9c0-3.3,2.7-6,6-6h11.4c5.5,0,10.4,3.2,12.7,8h102.8c6.6,0,11.4,6.2,9.6,12.6l-10.2,38.1
	c-2.1,7.9-9.2,13.3-17.4,13.3h-72.1l1.4,7.1c0.5,2.8,3,4.9,5.9,4.9h72.1c3.3,0,6,2.7,6,6c0,3.3-2.7,6-6,6h-72.1
	c-8.6,0-16.1-6.1-17.7-14.6l-12.9-67.8c-0.2-0.9-1-1.6-2-1.6h-11.4C216.8,200.9,214.2,198.2,214.2,194.9z M246.2,311.1
	c0-6.6,5.4-12,12-12c6.6,0,12,5.4,12,12s-5.4,12-12,12C251.5,323.1,246.2,317.7,246.2,311.1L246.2,311.1z M330.2,299.1
	c6.6,0,12,5.4,12,12s-5.4,12-12,12l0,0c-6.6,0-12-5.4-12-12S323.5,299.1,330.2,299.1z"/>
</svg>
